<svg xmlns="http://www.w3.org/2000/svg" version="1.1" xmlns:xlink="http://www.w3.org/1999/xlink" xmlns:svgjs="http://svgjs.dev/svgjs" width="1000" height="623" viewBox="0 0 1000 623"><g transform="matrix(1,0,0,1,-0.6060606060606233,0.2522267206477409)"><svg viewBox="0 0 396 247" data-background-color="#f5ba41" preserveAspectRatio="xMidYMid meet" height="623" width="1000" xmlns="http://www.w3.org/2000/svg" xmlns:xlink="http://www.w3.org/1999/xlink"><defs></defs><g id="tight-bounds" transform="matrix(1,0,0,1,0.2400000000000091,-0.09999999999999432)"><svg viewBox="0 0 395.52 247.2" height="247.2" width="395.52"><g><svg></svg></g><g><svg viewBox="0 0 395.52 247.2" height="247.2" width="395.52"><g transform="matrix(1,0,0,1,75.54432,96.55689372605579)"><svg viewBox="0 0 244.43135999999998 54.08621254788841" height="54.08621254788841" width="244.43135999999998"><g><svg viewBox="0 0 244.43135999999998 54.08621254788841" height="54.08621254788841" width="244.43135999999998"><g><svg viewBox="0 0 305.9493443393727 67.69851980869564" height="54.08621254788841" width="244.43135999999998"><g transform="matrix(1,0,0,1,61.517984339372745,9.356307730434782)"><svg viewBox="0 0 244.43135999999996 48.98590434782607" height="48.98590434782607" width="244.43135999999996"><g><svg viewBox="0 0 244.43135999999996 48.98590434782607" height="48.98590434782607" width="244.43135999999996"><g><svg viewBox="0 0 244.43135999999996 48.98590434782607" height="48.98590434782607" width="244.43135999999996"><g transform="matrix(1,0,0,1,0,0)"><svg width="244.43135999999996" viewBox="0.6000000238418579 -35.25 220.77999877929688 44.25" height="48.98590434782607" data-palette-color="#ffffff"><path d="M17 0L12.85 0 12.85-31.75 0.6-31.75 0.6-35.25 29.3-35.25 29.3-31.75 17-31.75 17 0ZM37.7 0L33.65 0 33.65-24.35 37.7-24.35 37.7 0ZM33.25-30.35L33.25-34.9 38.15-34.9 38.15-30.35 33.25-30.35ZM57.5-24.95Q60.7-24.95 63.15-23.35 65.59-21.75 66.95-18.88 68.3-16 68.3-12.2L68.3-12.2Q68.3-8.4 66.95-5.58 65.59-2.75 63.17-1.2 60.75 0.35 57.5 0.35L57.5 0.35Q54.65 0.35 52.52-0.9 50.4-2.15 49.3-4.45L49.3-4.45 49.3 9 45.25 9 45.25-24.35 49.3-24.35 49.3-20.15Q50.4-22.45 52.52-23.7 54.65-24.95 57.5-24.95L57.5-24.95ZM56.7-3Q60.25-3 62.2-5.4 64.15-7.8 64.15-12.2L64.15-12.2Q64.15-16.6 62.2-19.07 60.25-21.55 56.7-21.55L56.7-21.55Q53.15-21.55 51.22-19.15 49.3-16.75 49.3-12.3L49.3-12.3Q49.3-7.85 51.22-5.43 53.15-3 56.7-3L56.7-3ZM84.44 0.35Q80.99 0.35 78.37-1.2 75.74-2.75 74.32-5.63 72.89-8.5 72.89-12.3L72.89-12.3Q72.89-16.1 74.32-18.98 75.74-21.85 78.37-23.4 80.99-24.95 84.44-24.95L84.44-24.95Q87.89-24.95 90.54-23.4 93.19-21.85 94.62-18.98 96.04-16.1 96.04-12.3L96.04-12.3Q96.04-8.5 94.62-5.63 93.19-2.75 90.54-1.2 87.89 0.35 84.44 0.35L84.44 0.35ZM84.44-3Q88.04-3 89.97-5.38 91.89-7.75 91.89-12.3L91.89-12.3Q91.89-16.75 89.94-19.18 87.99-21.6 84.44-21.6L84.44-21.6Q80.89-21.6 78.94-19.18 76.99-16.75 76.99-12.3L76.99-12.3Q76.99-7.8 78.92-5.4 80.84-3 84.44-3L84.44-3ZM110.99-4.4L119.24-24.3 123.29-24.3 112.79 0 108.99 0 98.54-24.3 102.84-24.3 110.99-4.4ZM136.94-24.95Q141.59-24.95 143.86-22.58 146.14-20.2 146.14-15.35L146.14-15.35 146.14 0 142.19 0 142.19-4.15Q141.24-2 139.29-0.83 137.34 0.35 134.79 0.35L134.79 0.35Q132.44 0.35 130.46-0.6 128.49-1.55 127.34-3.25 126.19-4.95 126.19-7L126.19-7Q126.19-9.75 127.59-11.28 128.99-12.8 132.19-13.48 135.39-14.15 141.09-14.15L141.09-14.15 142.19-14.15 142.19-15.8Q142.19-18.85 140.94-20.23 139.69-21.6 136.89-21.6L136.89-21.6Q132.69-21.6 128.54-19L128.54-19 127.19-21.95Q129.09-23.3 131.76-24.13 134.44-24.95 136.94-24.95L136.94-24.95ZM135.34-2.85Q138.34-2.85 140.26-4.88 142.19-6.9 142.19-10.1L142.19-10.1 142.19-11.55 141.29-11.55Q136.89-11.55 134.59-11.18 132.29-10.8 131.31-9.93 130.34-9.05 130.34-7.35L130.34-7.35Q130.34-5.4 131.76-4.13 133.19-2.85 135.34-2.85L135.34-2.85ZM163.84 0.35Q160.24 0.35 157.59-1.2 154.94-2.75 153.51-5.58 152.09-8.4 152.09-12.2L152.09-12.2Q152.09-16 153.56-18.88 155.04-21.75 157.71-23.35 160.39-24.95 163.99-24.95L163.99-24.95Q166.44-24.95 168.79-24.08 171.14-23.2 172.59-21.75L172.59-21.75 171.24-18.75Q167.79-21.55 164.24-21.55L164.24-21.55Q160.49-21.55 158.39-19.1 156.29-16.65 156.29-12.2L156.29-12.2Q156.29-7.8 158.39-5.4 160.49-3 164.24-3L164.24-3Q167.79-3 171.24-5.8L171.24-5.8 172.59-2.8Q171.04-1.35 168.69-0.5 166.34 0.35 163.84 0.35L163.84 0.35ZM185.93-12.65L199.18 0 193.93 0 181.53-11.65 181.53 0 177.48 0 177.48-35.25 181.53-35.25 181.53-13.3 192.88-24.3 198.03-24.3 185.93-12.65ZM212.18-24.95Q216.83-24.95 219.11-22.58 221.38-20.2 221.38-15.35L221.38-15.35 221.38 0 217.43 0 217.43-4.15Q216.48-2 214.53-0.83 212.58 0.35 210.03 0.35L210.03 0.35Q207.68 0.35 205.71-0.6 203.73-1.55 202.58-3.25 201.43-4.95 201.43-7L201.43-7Q201.43-9.75 202.83-11.28 204.23-12.8 207.43-13.48 210.63-14.15 216.33-14.15L216.33-14.15 217.43-14.15 217.43-15.8Q217.43-18.85 216.18-20.23 214.93-21.6 212.13-21.6L212.13-21.6Q207.93-21.6 203.78-19L203.78-19 202.43-21.95Q204.33-23.3 207.01-24.13 209.68-24.95 212.18-24.95L212.18-24.95ZM210.58-2.85Q213.58-2.85 215.51-4.88 217.43-6.9 217.43-10.1L217.43-10.1 217.43-11.55 216.53-11.55Q212.13-11.55 209.83-11.18 207.53-10.8 206.56-9.93 205.58-9.05 205.58-7.35L205.58-7.35Q205.58-5.4 207.01-4.13 208.43-2.85 210.58-2.85L210.58-2.85Z" opacity="1" transform="matrix(1,0,0,1,0,0)" fill="#ffffff" class="undefined-text-0" data-fill-palette-color="primary" id="text-0"></path></svg></g></svg></g></svg></g></svg></g><g><svg viewBox="0 0 49.953587984555355 67.69851980869564" height="67.69851980869564" width="49.953587984555355"><g><svg xmlns="http://www.w3.org/2000/svg" xmlns:xlink="http://www.w3.org/1999/xlink" version="1.1" x="0" y="0" viewBox="26.777597427368164 6.058000564575195 138.6374053955078 187.88534545898438" enable-background="new 0 0 200 200" xml:space="preserve" height="67.69851980869564" width="49.953587984555355" class="icon-icon-0" data-fill-palette-color="accent" id="icon-0"><path d="M124.874 39.053c9.107 0 16.479-7.399 16.479-16.506s-7.371-16.489-16.479-16.489-16.509 7.38-16.509 16.486C108.365 31.653 115.765 39.053 124.874 39.053z" fill="#ffffff" data-fill-palette-color="accent"></path><path d="M162.663 73.26l-7.748-6.995-20.871-20.864c-1.949-1.874-4.578-3.056-7.529-3.056l-31.347-0.063-57.806-0.941c-2.279-0.317-4.66 0.311-6.543 1.927-3.476 2.985-3.881 8.212-0.884 11.703 1.682 1.959 4.069 2.959 6.477 2.882l39.198 0.169 21.061 0.026L65.403 95.192l-0.097-0.035L48.345 115.09c-0.589 0.654-1.118 1.383-1.542 2.207-2.756 5.196-1.865 11.736 3.362 14.465 4.553 2.414 11.148 1.014 14.296-2.826l21.357-25.416 1.312-1.643 2.375 1.688-0.83 0.947-58.89 71.346c-0.632 0.619-1.161 1.356-1.618 2.163-2.905 5.127-1.108 11.632 4.023 14.539 4.469 2.532 10.019 1.479 13.288-2.267l67.56-79.342 0.05 0.014 27.942-34.485 4.634 3.757-19.057 23.849c-1.182 1.547-1.841 3.505-1.739 5.6 0.229 4.74 4.259 8.373 8.977 8.145 2.071-0.1 3.908-0.896 5.326-2.184l22.784-28.368C169.303 79.172 162.663 73.26 162.663 73.26z" fill="#ffffff" data-fill-palette-color="accent"></path></svg></g></svg></g></svg></g></svg></g></svg></g><g><path d="M244.431 159.882A122.216 122.216 0 1 1 244.431 87.318L240.902 87.318A118.686 118.686 0 1 0 240.902 159.882L244.431 159.882" fill="#ffffff" stroke="transparent" data-fill-palette-color="tertiary"></path></g></svg></g></svg><rect width="395.52" height="247.2" fill="none" stroke="none" visibility="hidden"></rect></g></svg></g></svg>